<svg version="1.1" xmlns="http://www.w3.org/2000/svg" xmlns:xlink="http://www.w3.org/1999/xlink" viewBox="-200,-200,400,400" height="500" width="500" style="stroke: rgb(237, 236, 237);"><g fill="none" fill-rule="nonzero"  stroke-width="1" stroke-linecap="butt" stroke-linejoin="miter" stroke-miterlimit="10" stroke-dasharray="" stroke-dashoffset="0" font-family="none" font-weight="none" font-size="none" text-anchor="none" style="mix-blend-mode: normal"><path d="M179.94579,4.41742l-0.43351,8.8242l-20.57565,5.17433l-1.49789,10.09795l18.18764,10.92432l-2.14669,8.57007l-21.18976,1.0608l-3.43912,9.6117l15.70694,14.26265l-3.77738,7.9866l-20.98955,-3.0935l-5.24819,8.75607l12.62263,17.05287l-5.26291,7.09621l-19.98273,-7.12892l-6.85557,7.56396l9.05324,19.18775l-6.54619,5.93312l-18.20799,-10.89038l-8.1995,6.08116l5.13594,20.58527l-7.5779,4.54202l-15.73352,-14.23333l-9.22832,4.36467l1.02127,21.1917l-8.31839,2.97637l-12.65442,-17.02929l-9.90251,2.48045l-3.13265,20.98375l-8.73922,1.29634l-9.08902,-19.17083l-10.19615,0.5009l-7.16618,19.9694l-8.8242,-0.43351l-5.17433,-20.57565l-10.09795,-1.49789l-10.92432,18.18764l-8.57007,-2.14669l-1.0608,-21.18976l-9.6117,-3.43912l-14.26265,15.70694l-7.9866,-3.77738l3.0935,-20.98955l-8.75607,-5.24819l-17.05287,12.62263l-7.09621,-5.26291l7.12892,-19.98273l-7.56396,-6.85557l-19.18775,9.05324l-5.93312,-6.54619l10.89038,-18.20799l-6.08116,-8.1995l-20.58527,5.13594l-4.54202,-7.5779l14.23333,-15.73352l-4.36467,-9.22832l-21.1917,1.02127l-2.97637,-8.31839l17.02929,-12.65442l-2.48045,-9.90251l-20.98375,-3.13265l-1.29634,-8.73922l19.17083,-9.08902l-0.5009,-10.19615l-19.9694,-7.16618l0.43351,-8.8242l20.57565,-5.17433l1.49789,-10.09795l-18.18764,-10.92432l2.14669,-8.57007l21.18976,-1.0608l3.43912,-9.6117l-15.70694,-14.26265l3.77738,-7.9866l20.98955,3.0935l5.24819,-8.75607l-12.62263,-17.05287l5.26291,-7.09621l19.98273,7.12892l6.85557,-7.56396l-9.05324,-19.18775l6.54619,-5.93312l18.20799,10.89038l8.1995,-6.08116l-5.13594,-20.58527l7.5779,-4.54202l15.73352,14.23333l9.22832,-4.36467l-1.02127,-21.1917l8.31839,-2.97637l12.65442,17.02929l9.90251,-2.48045l3.13265,-20.98375l8.73922,-1.29634l9.08902,19.17083l10.19615,-0.5009l7.16618,-19.9694l8.8242,0.43351l5.17433,20.57565l10.09795,1.49789l10.92432,-18.18764l8.57007,2.14669l1.0608,21.18976l9.6117,3.43912l14.26265,-15.70694l7.9866,3.77738l-3.0935,20.98955l8.75607,5.24819l17.05287,-12.62263l7.09621,5.26291l-7.12892,19.98273l7.56396,6.85557l19.18775,-9.05324l5.93312,6.54619l-10.89038,18.20799l6.08116,8.1995l20.58527,-5.13594l4.54202,7.5779l-14.23333,15.73352l4.36467,9.22832l21.1917,-1.02127l2.97637,8.31839l-17.02929,12.65442l2.48045,9.90251l20.98375,3.13265l1.29634,8.73922l-19.17083,9.08902l0.5009,10.19615l19.9694,7.16618"/><path d="M-25,0l1.96462,-9.73113l5.35771,-7.94654l7.94654,-5.35771l9.73113,-1.96462l9.73113,1.96462l7.94654,5.35771l5.35771,7.94654l1.96462,9.73113l-1.96462,9.73113l-5.35771,7.94654l-7.94654,5.35771l-9.73113,1.96462l-9.73113,-1.96462l-7.94654,-5.35771l-5.35771,-7.94654z"/><path d="M-10,0l2.92893,-7.07107l7.07107,-2.92893l7.07107,2.92893l2.92893,7.07107l-2.92893,7.07107l-7.07107,2.92893l-7.07107,-2.92893z"/><path d="M-140,0l11.00189,-54.49432l30.00316,-44.50063l44.50063,-30.00316l54.49432,-11.00189l54.49432,11.00189l44.50063,30.00316l30.00316,44.50063l11.00189,54.49432l-11.00189,54.49432l-30.00316,44.50063l-44.50063,30.00316l-54.49432,11.00189l-54.49432,-11.00189l-44.50063,-30.00316l-30.00316,-44.50063z"/><path d="M90,0l5.85786,-14.14214l14.14214,-5.85786l14.14214,5.85786l5.85786,14.14214l-5.85786,14.14214l-14.14214,5.85786l-14.14214,-5.85786z"/><path d="M-10,69.28203l3.92925,-19.46226l10.71541,-15.89308l15.89308,-10.71541l19.46226,-3.92925l19.46226,3.92925l15.89308,10.71541l10.71541,15.89308l3.92925,19.46226l-3.92925,19.46226l-10.71541,15.89308l-15.89308,10.71541l-19.46226,3.92925l-19.46226,-3.92925l-15.89308,-10.71541l-10.71541,-15.89308z"/><path d="M-75,95.26279l5.85786,-14.14214l14.14214,-5.85786l14.14214,5.85786l5.85786,14.14214l-5.85786,14.14214l-14.14214,5.85786l-14.14214,-5.85786z"/><path d="M-130,0l3.92925,-19.46226l10.71541,-15.89308l15.89308,-10.71541l19.46226,-3.92925l19.46226,3.92925l15.89308,10.71541l10.71541,15.89308l3.92925,19.46226l-3.92925,19.46226l-10.71541,15.89308l-15.89308,10.71541l-19.46226,3.92925l-19.46226,-3.92925l-15.89308,-10.71541l-10.71541,-15.89308z"/><path d="M-75,-95.26279l5.85786,-14.14214l14.14214,-5.85786l14.14214,5.85786l5.85786,14.14214l-5.85786,14.14214l-14.14214,5.85786l-14.14214,-5.85786z"/><path d="M-10,-69.28203l3.92925,-19.46226l10.71541,-15.89308l15.89308,-10.71541l19.46226,-3.92925l19.46226,3.92925l15.89308,10.71541l10.71541,15.89308l3.92925,19.46226l-3.92925,19.46226l-10.71541,15.89308l-15.89308,10.71541l-19.46226,3.92925l-19.46226,-3.92925l-15.89308,-10.71541l-10.71541,-15.89308z"/></g></svg>