<svg version="1.1" xmlns="http://www.w3.org/2000/svg" xmlns:xlink="http://www.w3.org/1999/xlink" viewBox="-200,-200,400,400" height="500" width="500" style="stroke: rgb(237, 236, 237);"><g fill="none" fill-rule="nonzero" stroke-width="1" stroke-linecap="butt" stroke-linejoin="miter" stroke-miterlimit="10" stroke-dasharray="" stroke-dashoffset="0" font-family="none" font-weight="none" font-size="none" text-anchor="none" style="mix-blend-mode: normal"><path d="M129.99722,0.85084l0.90394,8.39669l-1.90503,6.87695l-9.85994,0.85134l-10.43474,-0.12366l-2.78341,4.21625l0.95805,4.96047l9.68777,3.87895l8.7836,4.55977l0.28829,8.17998l-5.20837,6.31412l-9.74432,-1.72961l-10.04718,-2.82016l-3.77981,3.35219l-0.35846,5.03941l8.35372,6.25416l7.30415,6.67777l-1.83867,7.97587l-6.66511,4.75094l-8.96463,-4.19269l-8.97492,-5.32447l-4.51863,2.25967l-1.65054,4.77492l6.45038,8.20315l5.32694,8.34068l-3.84033,7.22822l-7.66764,2.864l-7.57402,-6.37004l-7.29103,-7.46592l-4.94951,1.01317l-2.83014,4.18502l4.10745,9.59312l2.9867,9.43519l-5.58027,5.98797l-8.14763,0.78188l-5.66726,-8.11329l-5.11027,-9.09858l-5.04308,-0.30238l-3.81687,3.30993l1.48461,10.32933l0.44292,9.88671l-6.93993,4.33965l-8.07237,-1.35352l-3.37428,-9.30363l-2.58126,-10.11119l-4.79298,-1.59732l-4.54349,2.20927l-1.2394,10.36161l-2.13104,9.66447l-7.82664,2.3956l-7.447,-3.39669l-0.85134,-9.85994l0.12366,-10.43474l-4.21625,-2.78341l-4.96047,0.95805l-3.87895,9.68777l-4.55977,8.7836l-8.17998,0.28829l-6.31412,-5.20837l1.72961,-9.74432l2.82016,-10.04718l-3.35219,-3.77981l-5.03941,-0.35846l-6.25416,8.35372l-6.67777,7.30415l-7.97587,-1.83867l-4.75094,-6.66511l4.19269,-8.96463l5.32447,-8.97492l-2.25967,-4.51863l-4.77492,-1.65054l-8.20315,6.45038l-8.34068,5.32694l-7.22822,-3.84033l-2.864,-7.66764l6.37004,-7.57402l7.46592,-7.29103l-1.01317,-4.94951l-4.18502,-2.83014l-9.59312,4.10745l-9.43519,2.9867l-5.98797,-5.58027l-0.78188,-8.14763l8.11329,-5.66726l9.09858,-5.11027l0.30238,-5.04308l-3.30993,-3.81687l-10.32933,1.48461l-9.88671,0.44292l-4.33965,-6.93993l1.35352,-8.07237l9.30363,-3.37428l10.11119,-2.58126l1.59732,-4.79298l-2.20927,-4.54349l-10.36161,-1.2394l-9.66447,-2.13104l-2.3956,-7.82664l3.39669,-7.447l9.85994,-0.85134l10.43474,0.12366l2.78341,-4.21625l-0.95805,-4.96047l-9.68777,-3.87895l-8.7836,-4.55977l-0.28829,-8.17998l5.20837,-6.31412l9.74432,1.72961l10.04718,2.82016l3.77981,-3.35219l0.35846,-5.03941l-8.35372,-6.25416l-7.30415,-6.67777l1.83867,-7.97587l6.66511,-4.75094l8.96463,4.19269l8.97492,5.32447l4.51863,-2.25967l1.65054,-4.77492l-6.45038,-8.20315l-5.32694,-8.34068l3.84033,-7.22822l7.66764,-2.864l7.57402,6.37004l7.29103,7.46592l4.94951,-1.01317l2.83014,-4.18502l-4.10745,-9.59312l-2.9867,-9.43519l5.58027,-5.98797l8.14763,-0.78188l5.66726,8.11329l5.11027,9.09858l5.04308,0.30238l3.81687,-3.30993l-1.48461,-10.32933l-0.44292,-9.88671l6.93993,-4.33965l8.07237,1.35352l3.37428,9.30363l2.58126,10.11119l4.79298,1.59732l4.54349,-2.20927l1.2394,-10.36161l2.13104,-9.66447l7.82664,-2.3956l7.447,3.39669l0.85134,9.85994l-0.12366,10.43474l4.21625,2.78341l4.96047,-0.95805l3.87895,-9.68777l4.55977,-8.7836l8.17998,-0.28829l6.31412,5.20837l-1.72961,9.74432l-2.82016,10.04718l3.35219,3.77981l5.03941,0.35846l6.25416,-8.35372l6.67777,-7.30415l7.97587,1.83867l4.75094,6.66511l-4.19269,8.96463l-5.32447,8.97492l2.25967,4.51863l4.77492,1.65054l8.20315,-6.45038l8.34068,-5.32694l7.22822,3.84033l2.864,7.66764l-6.37004,7.57402l-7.46592,7.29103l1.01317,4.94951l4.18502,2.83014l9.59312,-4.10745l9.43519,-2.9867l5.98797,5.58027l0.78188,8.14763l-8.11329,5.66726l-9.09858,5.11027l-0.30238,5.04308l3.30993,3.81687l10.32933,-1.48461l9.88671,-0.44292l4.33965,6.93993l-1.35352,8.07237l-9.30363,3.37428l-10.11119,2.58126l-1.59732,4.79298l2.20927,4.54349l20.02608,3.37044"/><path d="M-30,0l2.35755,-11.67735l6.42925,-9.53585l9.53585,-6.42925l11.67735,-2.35755l11.67735,2.35755l9.53585,6.42925l6.42925,9.53585l2.35755,11.67735l-2.35755,11.67735l-6.42925,9.53585l-9.53585,6.42925l-11.67735,2.35755l-11.67735,-2.35755l-9.53585,-6.42925l-6.42925,-9.53585z"/><path d="M-10,0l2.92893,-7.07107l7.07107,-2.92893l7.07107,2.92893l2.92893,7.07107l-2.92893,7.07107l-7.07107,2.92893l-7.07107,-2.92893z"/><path d="M-100,0l7.8585,-38.92451l21.43083,-31.78617l31.78617,-21.43083l38.92451,-7.8585l38.92451,7.8585l31.78617,21.43083l21.43083,31.78617l7.8585,38.92451l-7.8585,38.92451l-21.43083,31.78617l-31.78617,21.43083l-38.92451,7.8585l-38.92451,-7.8585l-31.78617,-21.43083l-21.43083,-31.78617z"/><path d="M-85,0l6.67972,-33.08584l18.2162,-27.01824l27.01824,-18.2162l33.08584,-6.67972l33.08584,6.67972l27.01824,18.2162l18.2162,27.01824l6.67972,33.08584l-6.67972,33.08584l-18.2162,27.01824l-27.01824,18.2162l-33.08584,6.67972l-33.08584,-6.67972l-27.01824,-18.2162l-18.2162,-27.01824z"/><path d="M25,15l59,-8"/><path d="M25,-15l59,8"/><path d="M-25.49038,14.15064l-22.5718,55.0955"/><path d="M0.49038,29.15064l-36.4282,47.0955"/><path d="M0.49038,-29.15064l-36.4282,-47.0955"/><path d="M-25.49038,-14.15064l-22.5718,-55.0955"/></g></svg>